<?xml version="1.0" standalone="no"?>
<!DOCTYPE svg PUBLIC "-//W3C//DTD SVG 20010904//EN"
 "http://www.w3.org/TR/2001/REC-SVG-20010904/DTD/svg10.dtd">
<svg version="1.0" xmlns="http://www.w3.org/2000/svg"
 width="450.000000pt" height="112.000000pt" viewBox="0 0 450.000000 112.000000"
 preserveAspectRatio="xMidYMid meet">
<metadata>
Created by potrace 1.16, written by Peter Selinger 2001-2019
</metadata>
<g transform="translate(0.000000,112.000000) scale(0.100000,-0.100000)"
fill="#000000" stroke="none">
<path d="M0 1035 l0 -85 215 0 c132 0 223 -4 238 -11 55 -25 57 -41 57 -372 0
-197 -4 -315 -11 -336 -20 -56 -43 -61 -284 -61 l-215 0 0 -85 0 -85 2250 0
2250 0 0 85 0 85 -215 0 c-132 0 -223 4 -238 11 -55 25 -57 40 -57 379 0 337
2 354 55 378 17 8 95 12 240 12 l215 0 0 85 0 85 -2250 0 -2250 0 0 -85z
m1601 -114 l29 -29 0 -331 0 -330 -24 -28 -24 -28 -447 -3 c-397 -2 -450 -1
-472 13 -47 31 -51 57 -48 387 1 272 3 309 19 333 9 14 27 30 39 35 12 5 219
9 460 9 l439 1 29 -29z m1104 17 c53 -24 55 -41 55 -378 0 -337 -2 -354 -55
-378 -37 -17 -873 -17 -910 0 -53 24 -55 40 -55 380 1 334 2 347 51 374 33 18
875 20 914 2z m1134 -4 c45 -32 48 -58 46 -386 -2 -334 -4 -347 -61 -368 -15
-6 -208 -10 -460 -10 l-436 0 -29 29 -29 29 0 329 c0 354 1 362 54 383 11 5
217 9 456 9 387 1 438 -1 459 -15z"/>
</g>
</svg>
